<svg width="129" height="172" viewBox="0 0 129 172" fill="none" xmlns="http://www.w3.org/2000/svg">
<g filter="url(#filter0_d_658_75)">
<path d="M4 39.8323H64.5V163.087H14C8.47715 163.087 4 158.61 4 153.087V39.8323Z" fill="#FFCA42"/>
<path d="M64.5 39.8323H125V153.087C125 158.61 120.523 163.087 115 163.087H64.5V39.8323Z" fill="#FFCA42"/>
<g filter="url(#filter1_d_658_75)">
<path d="M4 19.7702C4 14.2473 8.47715 9.7702 14 9.7702H64.5V39.8323H4V19.7702Z" fill="#4D5A68"/>
<path d="M125 19.7702C125 14.2473 120.523 9.7702 115 9.7702H64.5V39.8323H125V19.7702Z" fill="#304653"/>
</g>
<g filter="url(#filter2_d_658_75)">
<path d="M64.5 3.05176e-05V3.05176e-05C67.4055 3.05176e-05 69.7609 2.3554 69.7609 5.2609V29.3106C69.7609 32.2161 67.4055 34.5715 64.5 34.5715V34.5715V3.05176e-05Z" fill="#ADB5CC"/>
<path d="M59.2392 5.26087C59.2392 2.35537 61.5946 0 64.5001 0V0V34.5714V34.5714C61.5946 34.5714 59.2392 32.2161 59.2392 29.3106V5.26087Z" fill="#CAD4E4"/>
</g>
<g filter="url(#filter3_d_658_75)">
<path d="M85.5435 3.05176e-05V3.05176e-05C88.449 3.05176e-05 90.8044 2.3554 90.8044 5.2609V29.3106C90.8044 32.2161 88.449 34.5715 85.5435 34.5715V34.5715V3.05176e-05Z" fill="#ADB5CC"/>
<path d="M80.2826 5.26087C80.2826 2.35537 82.6379 0 85.5434 0V0V34.5714V34.5714C82.6379 34.5714 80.2826 32.2161 80.2826 29.3106V5.26087Z" fill="#ADB5CC"/>
</g>
<g filter="url(#filter4_d_658_75)">
<path d="M106.587 3.05176e-05V3.05176e-05C109.492 3.05176e-05 111.848 2.3554 111.848 5.2609V29.3106C111.848 32.2161 109.492 34.5715 106.587 34.5715V34.5715V3.05176e-05Z" fill="#ADB5CC"/>
<path d="M101.326 5.26087C101.326 2.35537 103.682 0 106.587 0V0V34.5714V34.5714C103.682 34.5714 101.326 32.2161 101.326 29.3106V5.26087Z" fill="#ADB5CC"/>
</g>
<g filter="url(#filter5_d_658_75)">
<path d="M43.4567 3.05176e-05V3.05176e-05C46.3622 3.05176e-05 48.7176 2.3554 48.7176 5.2609V29.3106C48.7176 32.2161 46.3622 34.5715 43.4567 34.5715V34.5715V3.05176e-05Z" fill="#CAD4E4"/>
<path d="M38.1957 5.26087C38.1957 2.35537 40.5511 0 43.4566 0V0V34.5714V34.5714C40.5511 34.5714 38.1957 32.2161 38.1957 29.3106V5.26087Z" fill="#CAD4E4"/>
</g>
<g filter="url(#filter6_d_658_75)">
<path d="M17.1522 60.8758V60.8758C17.1522 57.9703 19.5075 55.6149 22.413 55.6149H46.4627C49.3682 55.6149 51.7236 57.9703 51.7236 60.8758V60.8758H17.1522Z" fill="#DD864D"/>
<path d="M22.413 66.1365C19.5075 66.1365 17.1522 63.7812 17.1522 60.8757V60.8757H51.7236V60.8757C51.7236 63.7812 49.3682 66.1365 46.4627 66.1365H22.413Z" fill="#DD864D"/>
</g>
<g filter="url(#filter7_d_658_75)">
<path d="M17.1522 87.9316V87.9316C17.1522 85.0261 19.5075 82.6707 22.413 82.6707H65.6273C68.5328 82.6707 70.8882 85.0261 70.8882 87.9316V87.9316H17.1522Z" fill="#DD864D"/>
<path d="M22.413 93.1925C19.5075 93.1925 17.1522 90.8371 17.1522 87.9316V87.9316H70.8882V87.9316C70.8882 90.8371 68.5328 93.1925 65.6273 93.1925H22.413Z" fill="#DD864D"/>
</g>
<g filter="url(#filter8_d_658_75)">
<path d="M17.1522 114.988V114.988C17.1522 112.082 19.5075 109.727 22.413 109.727H79.531C82.4365 109.727 84.7919 112.082 84.7919 114.988V114.988H17.1522Z" fill="#DD864D"/>
<path d="M22.413 120.248C19.5075 120.248 17.1522 117.893 17.1522 114.988V114.988H84.7919V114.988C84.7919 117.893 82.4365 120.248 79.531 120.248H22.413Z" fill="#DD864D"/>
</g>
<g filter="url(#filter9_d_658_75)">
<path d="M17.1522 142.043V142.043C17.1522 139.138 19.5075 136.783 22.413 136.783H96.0652C98.9707 136.783 101.326 139.138 101.326 142.043V142.043H17.1522Z" fill="#DD864D"/>
<path d="M22.413 147.304C19.5075 147.304 17.1522 144.949 17.1522 142.043V142.043H101.326V142.043C101.326 144.949 98.9707 147.304 96.0652 147.304H22.413Z" fill="#DD864D"/>
</g>
<g filter="url(#filter10_d_658_75)">
<path d="M22.4128 3.05176e-05V3.05176e-05C25.3183 3.05176e-05 27.6737 2.3554 27.6737 5.2609V29.3106C27.6737 32.2161 25.3183 34.5715 22.4128 34.5715V34.5715V3.05176e-05Z" fill="#CAD4E4"/>
<path d="M17.1522 5.26087C17.1522 2.35537 19.5076 0 22.4131 0V0V34.5714V34.5714C19.5076 34.5714 17.1522 32.2161 17.1522 29.3106V5.26087Z" fill="#CAD4E4"/>
</g>
<path d="M64.5 39.8323H125V153.087C125 158.61 120.523 163.087 115 163.087H64.5V39.8323Z" fill="#FD8900" fill-opacity="0.4"/>
</g>
<defs>
<filter id="filter0_d_658_75" x="0" y="0" width="129" height="171.087" filterUnits="userSpaceOnUse" color-interpolation-filters="sRGB">
<feFlood flood-opacity="0" result="BackgroundImageFix"/>
<feColorMatrix in="SourceAlpha" type="matrix" values="0 0 0 0 0 0 0 0 0 0 0 0 0 0 0 0 0 0 127 0" result="hardAlpha"/>
<feOffset dy="4"/>
<feGaussianBlur stdDeviation="2"/>
<feComposite in2="hardAlpha" operator="out"/>
<feColorMatrix type="matrix" values="0 0 0 0 0 0 0 0 0 0 0 0 0 0 0 0 0 0 0.25 0"/>
<feBlend mode="normal" in2="BackgroundImageFix" result="effect1_dropShadow_658_75"/>
<feBlend mode="normal" in="SourceGraphic" in2="effect1_dropShadow_658_75" result="shape"/>
</filter>
<filter id="filter1_d_658_75" x="0" y="9.7702" width="129" height="38.0621" filterUnits="userSpaceOnUse" color-interpolation-filters="sRGB">
<feFlood flood-opacity="0" result="BackgroundImageFix"/>
<feColorMatrix in="SourceAlpha" type="matrix" values="0 0 0 0 0 0 0 0 0 0 0 0 0 0 0 0 0 0 127 0" result="hardAlpha"/>
<feOffset dy="4"/>
<feGaussianBlur stdDeviation="2"/>
<feComposite in2="hardAlpha" operator="out"/>
<feColorMatrix type="matrix" values="0 0 0 0 0 0 0 0 0 0 0 0 0 0 0 0 0 0 0.25 0"/>
<feBlend mode="normal" in2="BackgroundImageFix" result="effect1_dropShadow_658_75"/>
<feBlend mode="normal" in="SourceGraphic" in2="effect1_dropShadow_658_75" result="shape"/>
</filter>
<filter id="filter2_d_658_75" x="55.2392" y="0" width="18.5216" height="42.5714" filterUnits="userSpaceOnUse" color-interpolation-filters="sRGB">
<feFlood flood-opacity="0" result="BackgroundImageFix"/>
<feColorMatrix in="SourceAlpha" type="matrix" values="0 0 0 0 0 0 0 0 0 0 0 0 0 0 0 0 0 0 127 0" result="hardAlpha"/>
<feOffset dy="4"/>
<feGaussianBlur stdDeviation="2"/>
<feComposite in2="hardAlpha" operator="out"/>
<feColorMatrix type="matrix" values="0 0 0 0 0 0 0 0 0 0 0 0 0 0 0 0 0 0 0.25 0"/>
<feBlend mode="normal" in2="BackgroundImageFix" result="effect1_dropShadow_658_75"/>
<feBlend mode="normal" in="SourceGraphic" in2="effect1_dropShadow_658_75" result="shape"/>
</filter>
<filter id="filter3_d_658_75" x="76.2826" y="0" width="18.5218" height="42.5714" filterUnits="userSpaceOnUse" color-interpolation-filters="sRGB">
<feFlood flood-opacity="0" result="BackgroundImageFix"/>
<feColorMatrix in="SourceAlpha" type="matrix" values="0 0 0 0 0 0 0 0 0 0 0 0 0 0 0 0 0 0 127 0" result="hardAlpha"/>
<feOffset dy="4"/>
<feGaussianBlur stdDeviation="2"/>
<feComposite in2="hardAlpha" operator="out"/>
<feColorMatrix type="matrix" values="0 0 0 0 0 0 0 0 0 0 0 0 0 0 0 0 0 0 0.25 0"/>
<feBlend mode="normal" in2="BackgroundImageFix" result="effect1_dropShadow_658_75"/>
<feBlend mode="normal" in="SourceGraphic" in2="effect1_dropShadow_658_75" result="shape"/>
</filter>
<filter id="filter4_d_658_75" x="97.3261" y="0" width="18.5216" height="42.5714" filterUnits="userSpaceOnUse" color-interpolation-filters="sRGB">
<feFlood flood-opacity="0" result="BackgroundImageFix"/>
<feColorMatrix in="SourceAlpha" type="matrix" values="0 0 0 0 0 0 0 0 0 0 0 0 0 0 0 0 0 0 127 0" result="hardAlpha"/>
<feOffset dy="4"/>
<feGaussianBlur stdDeviation="2"/>
<feComposite in2="hardAlpha" operator="out"/>
<feColorMatrix type="matrix" values="0 0 0 0 0 0 0 0 0 0 0 0 0 0 0 0 0 0 0.25 0"/>
<feBlend mode="normal" in2="BackgroundImageFix" result="effect1_dropShadow_658_75"/>
<feBlend mode="normal" in="SourceGraphic" in2="effect1_dropShadow_658_75" result="shape"/>
</filter>
<filter id="filter5_d_658_75" x="34.1957" y="0" width="18.5219" height="42.5714" filterUnits="userSpaceOnUse" color-interpolation-filters="sRGB">
<feFlood flood-opacity="0" result="BackgroundImageFix"/>
<feColorMatrix in="SourceAlpha" type="matrix" values="0 0 0 0 0 0 0 0 0 0 0 0 0 0 0 0 0 0 127 0" result="hardAlpha"/>
<feOffset dy="4"/>
<feGaussianBlur stdDeviation="2"/>
<feComposite in2="hardAlpha" operator="out"/>
<feColorMatrix type="matrix" values="0 0 0 0 0 0 0 0 0 0 0 0 0 0 0 0 0 0 0.25 0"/>
<feBlend mode="normal" in2="BackgroundImageFix" result="effect1_dropShadow_658_75"/>
<feBlend mode="normal" in="SourceGraphic" in2="effect1_dropShadow_658_75" result="shape"/>
</filter>
<filter id="filter6_d_658_75" x="13.1522" y="55.6149" width="42.5714" height="18.5216" filterUnits="userSpaceOnUse" color-interpolation-filters="sRGB">
<feFlood flood-opacity="0" result="BackgroundImageFix"/>
<feColorMatrix in="SourceAlpha" type="matrix" values="0 0 0 0 0 0 0 0 0 0 0 0 0 0 0 0 0 0 127 0" result="hardAlpha"/>
<feOffset dy="4"/>
<feGaussianBlur stdDeviation="2"/>
<feComposite in2="hardAlpha" operator="out"/>
<feColorMatrix type="matrix" values="0 0 0 0 0 0 0 0 0 0 0 0 0 0 0 0 0 0 0.25 0"/>
<feBlend mode="normal" in2="BackgroundImageFix" result="effect1_dropShadow_658_75"/>
<feBlend mode="normal" in="SourceGraphic" in2="effect1_dropShadow_658_75" result="shape"/>
</filter>
<filter id="filter7_d_658_75" x="13.1522" y="82.6707" width="61.736" height="18.5218" filterUnits="userSpaceOnUse" color-interpolation-filters="sRGB">
<feFlood flood-opacity="0" result="BackgroundImageFix"/>
<feColorMatrix in="SourceAlpha" type="matrix" values="0 0 0 0 0 0 0 0 0 0 0 0 0 0 0 0 0 0 127 0" result="hardAlpha"/>
<feOffset dy="4"/>
<feGaussianBlur stdDeviation="2"/>
<feComposite in2="hardAlpha" operator="out"/>
<feColorMatrix type="matrix" values="0 0 0 0 0 0 0 0 0 0 0 0 0 0 0 0 0 0 0.25 0"/>
<feBlend mode="normal" in2="BackgroundImageFix" result="effect1_dropShadow_658_75"/>
<feBlend mode="normal" in="SourceGraphic" in2="effect1_dropShadow_658_75" result="shape"/>
</filter>
<filter id="filter8_d_658_75" x="13.1522" y="109.727" width="75.6397" height="18.5217" filterUnits="userSpaceOnUse" color-interpolation-filters="sRGB">
<feFlood flood-opacity="0" result="BackgroundImageFix"/>
<feColorMatrix in="SourceAlpha" type="matrix" values="0 0 0 0 0 0 0 0 0 0 0 0 0 0 0 0 0 0 127 0" result="hardAlpha"/>
<feOffset dy="4"/>
<feGaussianBlur stdDeviation="2"/>
<feComposite in2="hardAlpha" operator="out"/>
<feColorMatrix type="matrix" values="0 0 0 0 0 0 0 0 0 0 0 0 0 0 0 0 0 0 0.25 0"/>
<feBlend mode="normal" in2="BackgroundImageFix" result="effect1_dropShadow_658_75"/>
<feBlend mode="normal" in="SourceGraphic" in2="effect1_dropShadow_658_75" result="shape"/>
</filter>
<filter id="filter9_d_658_75" x="13.1522" y="136.783" width="92.1739" height="18.5216" filterUnits="userSpaceOnUse" color-interpolation-filters="sRGB">
<feFlood flood-opacity="0" result="BackgroundImageFix"/>
<feColorMatrix in="SourceAlpha" type="matrix" values="0 0 0 0 0 0 0 0 0 0 0 0 0 0 0 0 0 0 127 0" result="hardAlpha"/>
<feOffset dy="4"/>
<feGaussianBlur stdDeviation="2"/>
<feComposite in2="hardAlpha" operator="out"/>
<feColorMatrix type="matrix" values="0 0 0 0 0 0 0 0 0 0 0 0 0 0 0 0 0 0 0.25 0"/>
<feBlend mode="normal" in2="BackgroundImageFix" result="effect1_dropShadow_658_75"/>
<feBlend mode="normal" in="SourceGraphic" in2="effect1_dropShadow_658_75" result="shape"/>
</filter>
<filter id="filter10_d_658_75" x="13.1522" y="0" width="18.5215" height="42.5714" filterUnits="userSpaceOnUse" color-interpolation-filters="sRGB">
<feFlood flood-opacity="0" result="BackgroundImageFix"/>
<feColorMatrix in="SourceAlpha" type="matrix" values="0 0 0 0 0 0 0 0 0 0 0 0 0 0 0 0 0 0 127 0" result="hardAlpha"/>
<feOffset dy="4"/>
<feGaussianBlur stdDeviation="2"/>
<feComposite in2="hardAlpha" operator="out"/>
<feColorMatrix type="matrix" values="0 0 0 0 0 0 0 0 0 0 0 0 0 0 0 0 0 0 0.25 0"/>
<feBlend mode="normal" in2="BackgroundImageFix" result="effect1_dropShadow_658_75"/>
<feBlend mode="normal" in="SourceGraphic" in2="effect1_dropShadow_658_75" result="shape"/>
</filter>
</defs>
</svg>
